<svg width="192" height="192" viewBox="0 0 192 192" fill="none" xmlns="http://www.w3.org/2000/svg">
  <!-- Main dome -->
  <path d="M96 24L120 48H72L96 24Z" fill="#be185d"/>
  
  <!-- Main building -->
  <rect x="36" y="48" width="120" height="96" rx="8" fill="#be185d"/>
  
  <!-- Windows/doors -->
  <rect x="48" y="72" width="18" height="48" rx="9" fill="#fdf2f8"/>
  <rect x="78" y="72" width="36" height="48" rx="4" fill="#fdf2f8"/>
  <rect x="126" y="72" width="18" height="48" rx="9" fill="#fdf2f8"/>
  
  <!-- Minarets -->
  <circle cx="24" cy="36" r="12" fill="#be185d"/>
  <circle cx="168" cy="36" r="12" fill="#be185d"/>
  <rect x="21" y="48" width="6" height="72" fill="#be185d"/>
  <rect x="165" y="48" width="6" height="72" fill="#be185d"/>
  
  <!-- Minaret tops -->
  <path d="M24 24L30 36H18L24 24Z" fill="#be185d"/>
  <path d="M168 24L174 36H162L168 24Z" fill="#be185d"/>
  
  <!-- Base -->
  <rect x="30" y="144" width="132" height="24" fill="#be185d"/>
  
  <!-- Decorative elements -->
  <circle cx="96" cy="96" r="8" fill="#fdf2f8"/>
  <rect x="92" y="88" width="8" height="16" fill="#be185d"/>
  <rect x="88" y="92" width="16" height="8" fill="#be185d"/>
</svg>
